<?xml version="1.0" encoding="UTF-8" standalone="no" ?>
<!DOCTYPE svg PUBLIC "-//W3C//DTD SVG 1.1//EN" "http://www.w3.org/Graphics/SVG/1.1/DTD/svg11.dtd">
<svg xmlns="http://www.w3.org/2000/svg" xmlns:xlink="http://www.w3.org/1999/xlink" version="1.1" width="1080" height="1080" viewBox="0 0 1080 1080" xml:space="preserve">
<desc>Created with Fabric.js 5.2.4</desc>
<defs>
</defs>
<rect x="0" y="0" width="100%" height="100%" fill="transparent"></rect>
<g transform="matrix(1 0 0 1 540 540)" id="289ae7d6-d91c-409a-960f-8d12ffd9cbe8"  >
</g>
<g transform="matrix(1 0 0 1 540 540)" id="3560f89f-c507-4064-912e-f9d68da04079"  >
<rect style="stroke: none; stroke-width: 1; stroke-dasharray: none; stroke-linecap: butt; stroke-dashoffset: 0; stroke-linejoin: miter; stroke-miterlimit: 4; fill: rgb(255,255,255); fill-rule: nonzero; opacity: 1; visibility: hidden;" vector-effect="non-scaling-stroke"  x="-540" y="-540" rx="0" ry="0" width="1080" height="1080" />
</g>
<g transform="matrix(3.34 0 0 -3.36 540 540)"  >
<path style="stroke: rgb(0,0,0); stroke-opacity: 0; stroke-width: 1; stroke-dasharray: none; stroke-linecap: butt; stroke-dashoffset: 0; stroke-linejoin: miter; stroke-miterlimit: 4; fill: rgb(206,19,19); fill-rule: nonzero; opacity: 1;"  transform=" translate(-160.83, -160.83)" d="M 320.518 70.438 C 319.33099999999996 69.36200000000001 317.566 69.22800000000001 316.231 70.113 C 310.328 74.029 302.371 76.017 295.758 77.027 C 303.66499999999996 70.577 312.888 60.439 312.827 47.375 C 312.821 46.061 312.079 44.86 310.906 44.267 C 309.733 43.67400000000001 308.326 43.789 307.264 44.563 C 295.279 53.309 278.1 57.903 271.81 59.37 C 267.362 52.04 252.064 30.545999999999996 225.623 30.545999999999996 C 224.14399999999998 30.545999999999996 222.635 30.615999999999996 221.13799999999998 30.752999999999997 C 188.27899999999997 33.775 172.35699999999997 52.989999999999995 164.78699999999998 68.578 C 160.00099999999998 78.433 157.89899999999997 87.975 156.97799999999998 94.277 C 151.76699999999997 89.735 142.67799999999997 82.82300000000001 129.14899999999997 75.906 C 108.481 65.337 72.983 52.739 21.247 52.739 C 16.217 52.739 11.05 52.858 5.888999999999999 53.092999999999996 C 4.715 53.147 3.6459999999999995 53.785999999999994 3.0429999999999993 54.794999999999995 C 2.4399999999999995 55.803999999999995 2.3839999999999995 57.04899999999999 2.894999999999999 58.108 C 13.937 81.04 37.69 94.51 53.153 101.18 C 44.669 103.42800000000001 35.604 107.81400000000001 32.765 114.724 C 31.324 118.232 30.954 123.745 37.373 130.088 C 46.797 139.4 57.876 145.058 67.638 148.493 C 59.99000000000001 149.85399999999998 53.883 152.19 51.903000000000006 156.077 C 51.150000000000006 157.557 50.291000000000004 160.595 53.00300000000001 164.323 C 66.004 182.20100000000002 97.165 189.15300000000002 110.983 190.287 C 109.23 194.452 105.57900000000001 201.215 98.528 207.913 C 83.462 222.222 59.706 229.786 29.828000000000003 229.787 C 29.825000000000003 229.787 29.822000000000003 229.787 29.819000000000003 229.787 C 21.700000000000003 229.787 12.986000000000004 229.237 3.916000000000004 228.151 C 2.4180000000000037 227.97400000000002 0.972000000000004 228.77300000000002 0.33100000000000396 230.14100000000002 C -0.30999999999999606 231.508 -0.0019999999999960605 233.13200000000003 1.095000000000004 234.169 C 40.484 271.42 85.2 291.113 130.41 291.12 C 130.41899999999998 291.12 130.42499999999998 291.12 130.433 291.12 C 180.20499999999998 291.12 228.937 266.648 260.78999999999996 225.657 C 289.157 189.15200000000002 300.02299999999997 145.45800000000003 290.84999999999997 105.27400000000002 C 296.97799999999995 102.65100000000001 310.505 94.89500000000001 321.256 74.67200000000001 C 322.008 73.258 321.704 71.514 320.518 70.438 z" stroke-linecap="round" />
</g>
<g transform="matrix(1.35 0 0 1.35 833.84 715.76)" id="24b7d26b-0a9b-4fed-9feb-4e00ccd840af"  >
<path style="stroke: rgb(0,0,0); stroke-width: 0; stroke-dasharray: none; stroke-linecap: butt; stroke-dashoffset: 0; stroke-linejoin: miter; stroke-miterlimit: 4; fill: rgb(0,0,0); fill-rule: nonzero; opacity: 1;" vector-effect="non-scaling-stroke"  transform=" translate(-50, -50)" d="M 16.28 19.945 L 19.957 16.32 C 22.060000000000002 14.166 25.578000000000003 14.166 27.681 16.32 L 50.007000000000005 38.595 L 72.333 16.32 C 74.43599999999999 14.166 77.954 14.166 80.054 16.32 L 83.68 19.945 C 85.834 22.046 85.834 25.566000000000003 83.68 27.668 L 61.405 49.993 L 83.68 72.32 C 85.834 74.422 85.834 77.939 83.68 80.04299999999999 L 80.054 83.72099999999999 C 77.95400000000001 85.82 74.436 85.82 72.333 83.72099999999999 L 50.007 61.393 L 27.681 83.721 C 25.578 85.82000000000001 22.060000000000002 85.82000000000001 19.957 83.721 L 16.28 80.043 C 14.180000000000001 77.93900000000001 14.180000000000001 74.42200000000001 16.28 72.32000000000001 L 38.606 49.99300000000001 L 16.28 27.667 C 14.18 25.566 14.18 22.046 16.28 19.945 z" stroke-linecap="round" />
</g>
</svg>